<?xml version="1.0" encoding="UTF-8"?>
<svg id="Layer_1" xmlns="http://www.w3.org/2000/svg" version="1.1" xmlns:xlink="http://www.w3.org/1999/xlink" viewBox="0 0 226.04 42.78">
  <!-- Generator: Adobe Illustrator 29.5.1, SVG Export Plug-In . SVG Version: 2.1.0 Build 141)  -->
  <defs>
    <style>
      .st0 {
        fill: url(#linear-gradient2);
      }

      .st1 {
        fill: #fff;
      }

      .st2 {
        fill: url(#linear-gradient1);
      }

      .st3 {
        fill: #318ea2;
      }

      .st4 {
        fill: #35b9d6;
      }

      .st5 {
        fill: #476483;
      }

      .st6 {
        fill: url(#linear-gradient);
      }
    </style>
    <linearGradient id="linear-gradient" x1="42.53" y1="212.89" x2="35.12" y2="213.89" gradientTransform="translate(0 238.51) scale(1 -1)" gradientUnits="userSpaceOnUse">
      <stop offset="0" stop-color="#476483"/>
      <stop offset="1" stop-color="#318ea2"/>
    </linearGradient>
    <linearGradient id="linear-gradient1" x1="46.55" y1="214.42" x2="43.86" y2="221.41" gradientTransform="translate(0 238.51) scale(1 -1)" gradientUnits="userSpaceOnUse">
      <stop offset="0" stop-color="#476483"/>
      <stop offset="1" stop-color="#35b9d6"/>
    </linearGradient>
    <linearGradient id="linear-gradient2" x1="35.73" y1="218.14" x2="40.26" y2="223.95" gradientTransform="translate(0 238.51) scale(1 -1)" gradientUnits="userSpaceOnUse">
      <stop offset="0" stop-color="#318ea2"/>
      <stop offset="1" stop-color="#35b9d6"/>
    </linearGradient>
  </defs>
  <g>
    <path class="st4" d="M51.8,13.94l-6.83-5.37-8.04,3.22s-.83,5.69-1.24,8.54v.03s4.04-1.61,4.04-1.61l4.04-1.61,6.8,5.35,1.24-8.54Z"/>
    <path class="st3" d="M42.47,25.68l-3.37-2.65-3.41-2.68,1.25-8.56-8.03,3.2-1.25,8.59,6.79,5.34v-.03s8.03-3.2,8.03-3.2Z"/>
    <path class="st5" d="M50.56,22.47l-6.8-5.35-.62,4.29-.65,4.28-8.05,3.18,6.79,5.34,8.08-3.22,1.25-8.53Z"/>
    <path class="st6" d="M34.42,28.86l.62-4.24.62-4.29,3.41,2.68,3.41,2.69-4.04,1.61-3.99,1.59-.02-.02-.02-.02Z"/>
    <path class="st2" d="M42.52,25.66l.62-4.24.62-4.29,3.41,2.69,3.38,2.66-4.01,1.63-3.99,1.59-.02-.02-.02-.02Z"/>
    <path class="st0" d="M36.3,16.08l.63-4.29,3.41,2.69,3.42,2.66-4.04,1.64c-1.35.54-2.72,1.06-4.07,1.6.21-1.43.44-2.85.65-4.28h0Z"/>
  </g>
  <g>
    <path class="st1" d="M73.65,14.37v14.81h-2.43v-10.14l-4.52,10.14h-1.68l-4.54-10.14v10.14h-2.43v-14.81h2.62l5.2,11.61,5.18-11.61h2.6Z"/>
    <path class="st1" d="M76.77,20.12c.49-.91,1.16-1.62,2-2.12.84-.5,1.78-.76,2.8-.76.92,0,1.73.18,2.42.54.69.36,1.24.81,1.65,1.35v-1.7h2.45v11.74h-2.45v-1.75c-.41.55-.97,1.02-1.68,1.38s-1.52.55-2.43.55c-1.01,0-1.93-.26-2.77-.78-.84-.52-1.5-1.24-1.99-2.17-.49-.93-.73-1.99-.73-3.16s.25-2.22.73-3.13ZM85.14,21.19c-.33-.6-.77-1.05-1.31-1.36-.54-.31-1.12-.47-1.75-.47s-1.21.15-1.75.46-.98.75-1.31,1.34c-.33.59-.5,1.29-.5,2.1s.17,1.52.5,2.13c.33.61.77,1.08,1.32,1.4s1.13.48,1.74.48,1.21-.16,1.75-.47c.54-.31.98-.77,1.31-1.37.33-.6.5-1.31.5-2.12s-.17-1.51-.5-2.11Z"/>
    <path class="st1" d="M99.7,17.82c.73.38,1.3.95,1.72,1.71.41.75.62,1.66.62,2.73v6.93h-2.41v-6.56c0-1.05-.26-1.86-.79-2.42-.53-.56-1.24-.84-2.15-.84s-1.63.28-2.16.84c-.53.56-.8,1.37-.8,2.42v6.56h-2.43v-11.74h2.43v1.34c.4-.48.91-.86,1.52-1.13.62-.27,1.27-.41,1.97-.41.92,0,1.75.19,2.48.58Z"/>
    <path class="st1" d="M115.75,17.44v11.74h-2.43v-1.38c-.38.48-.88.86-1.5,1.14-.62.28-1.27.42-1.97.42-.92,0-1.75-.19-2.48-.58-.73-.38-1.31-.95-1.73-1.7s-.63-1.66-.63-2.73v-6.9h2.41v6.54c0,1.05.26,1.86.79,2.42.53.56,1.24.84,2.15.84s1.63-.28,2.16-.84c.53-.56.8-1.37.8-2.42v-6.54h2.43Z"/>
    <path class="st1" d="M120.73,28.87c-.73-.33-1.31-.79-1.74-1.36-.43-.58-.65-1.22-.68-1.93h2.51c.04.5.28.91.71,1.25.43.33.98.5,1.63.5s1.21-.13,1.59-.39.56-.6.56-1.01c0-.44-.21-.77-.63-.98-.42-.21-1.08-.45-1.99-.7-.88-.24-1.6-.48-2.15-.7-.55-.23-1.03-.58-1.44-1.04-.4-.47-.61-1.09-.61-1.85,0-.62.18-1.2.55-1.72s.9-.93,1.59-1.22c.69-.3,1.48-.45,2.38-.45,1.33,0,2.41.34,3.23,1.01s1.25,1.59,1.31,2.76h-2.43c-.04-.53-.26-.95-.64-1.26s-.9-.47-1.56-.47-1.13.12-1.47.36c-.34.24-.51.56-.51.96,0,.31.11.58.34.79.23.21.5.38.83.5.33.12.81.27,1.45.46.85.23,1.55.46,2.1.69.55.23,1.02.58,1.42,1.03.4.46.6,1.06.62,1.81,0,.67-.19,1.26-.55,1.79-.37.53-.89.94-1.57,1.24-.68.3-1.47.45-2.38.45s-1.75-.17-2.48-.5Z"/>
    <path class="st1" d="M138.8,17.82c.7.38,1.26.95,1.66,1.71s.61,1.66.61,2.73v6.93h-2.41v-6.56c0-1.05-.26-1.86-.79-2.42-.53-.56-1.24-.84-2.15-.84s-1.63.28-2.16.84c-.53.56-.8,1.37-.8,2.42v6.56h-2.43v-15.77h2.43v5.39c.41-.5.93-.88,1.57-1.15.63-.27,1.32-.41,2.08-.41.9,0,1.69.19,2.4.58Z"/>
    <path class="st1" d="M159.27,14.37v1.98h-3.94v12.83h-2.43v-12.83h-3.96v-1.98h10.33Z"/>
    <path class="st1" d="M172.39,24.21h-8.97c.07.94.42,1.69,1.04,2.26.62.57,1.39.85,2.3.85,1.31,0,2.23-.55,2.77-1.64h2.62c-.36,1.08-1,1.96-1.93,2.65-.93.69-2.08,1.03-3.46,1.03-1.12,0-2.13-.25-3.02-.76-.89-.5-1.58-1.21-2.09-2.13-.5-.92-.76-1.98-.76-3.19s.25-2.27.73-3.19c.49-.92,1.18-1.62,2.07-2.12.89-.5,1.91-.75,3.06-.75s2.1.24,2.96.72c.87.48,1.54,1.16,2.02,2.04s.72,1.88.72,3.02c0,.44-.03.84-.08,1.19ZM169.94,22.25c-.01-.89-.33-1.61-.96-2.15-.63-.54-1.4-.81-2.32-.81-.84,0-1.56.27-2.15.8-.6.53-.95,1.25-1.07,2.16h6.5Z"/>
    <path class="st1" d="M174.79,20.11c.49-.92,1.17-1.62,2.04-2.12.87-.5,1.86-.75,2.98-.75,1.42,0,2.6.34,3.53,1.01.93.67,1.56,1.64,1.89,2.89h-2.62c-.21-.58-.55-1.04-1.02-1.36-.47-.33-1.06-.49-1.77-.49-.99,0-1.79.35-2.38,1.05-.59.7-.88,1.69-.88,2.95s.29,2.25.88,2.96c.59.71,1.38,1.07,2.38,1.07,1.41,0,2.34-.62,2.79-1.85h2.62c-.34,1.19-.98,2.14-1.92,2.84s-2.1,1.05-3.49,1.05c-1.12,0-2.12-.25-2.98-.76-.87-.5-1.54-1.21-2.04-2.13-.49-.92-.73-1.98-.73-3.19s.25-2.27.73-3.19Z"/>
    <path class="st1" d="M196.12,17.82c.7.38,1.26.95,1.66,1.71s.61,1.66.61,2.73v6.93h-2.41v-6.56c0-1.05-.26-1.86-.79-2.42-.53-.56-1.24-.84-2.15-.84s-1.63.28-2.16.84c-.53.56-.8,1.37-.8,2.42v6.56h-2.43v-15.77h2.43v5.39c.41-.5.93-.88,1.57-1.15.63-.27,1.32-.41,2.08-.41.9,0,1.69.19,2.4.58Z"/>
  </g>
</svg>